<svg xmlns="http://www.w3.org/2000/svg" viewBox="0 0 124 98"><defs><style>.cls-1,.cls-2{fill:none;stroke:#333;stroke-linecap:round;}.cls-1{stroke-linejoin:round;stroke-width:4px;}.cls-2{stroke-miterlimit:10;stroke-width:2px;}.cls-3{fill:#333;}</style></defs><title>General - Blockquote</title><g id="Layer_2" data-name="Layer 2"><g id="General_-_Blockquote" data-name="General - Blockquote"><g id="General_-_Blockquote-2" data-name="General - Blockquote"><path class="cls-1" d="M57,16.1A28,28,0,0,0,31,3.06,31,31,0,0,0,33,65c.74,0,6.49-.94,7.75,2.21,1,2.52-3.11,19.33-4.82,26A2.21,2.21,0,0,0,38.07,96H48.88c1.8,0,1.42-1.08,2.09-2.75,2.52-6.17,8.38-21.56,9.54-33.71.11-1.2.22-2.36.32-3.49"/><path class="cls-2" d="M15,35c0-9.95,7.6-18,17-18"/><path class="cls-1" d="M121.77,41c.23-5.11.23-8,.23-8C122,15.22,109,.94,91,2.06A31,31,0,0,0,93,64c.74,0,6.49-.94,7.75,2.21,1,2.52-3.11,19.32-4.82,26A2.21,2.21,0,0,0,98.07,95h10.81c1.8,0,1.42-1.08,2.09-2.75,2.52-6.17,8.38-21.56,9.54-33.71.1-1,.19-2.07.28-3.06"/><path class="cls-2" d="M75,34c0-9.95,7.6-18,17-18"/><circle class="cls-3" cx="15" cy="40" r="1"/><circle class="cls-3" cx="97" cy="16" r="1"/><circle class="cls-3" cx="121" cy="50" r="2"/></g></g></g></svg>