<?xml version="1.0" encoding="utf-8"?>
<!-- Generator: Adobe Illustrator 19.2.0, SVG Export Plug-In . SVG Version: 6.00 Build 0)  -->
<svg version="1.1" id="Layer_1" xmlns="http://www.w3.org/2000/svg" xmlns:xlink="http://www.w3.org/1999/xlink" x="0px" y="0px"
	 viewBox="0 0 500 500" style="enable-background:new 0 0 500 500;" xml:space="preserve">
<style type="text/css">
	.st0{fill:#ECF4F7;}
	.st1{fill:#1C1D21;}
	.st2{fill:#83E1E5;}
	.st3{fill:#AAB1BA;}
	.st4{fill:none;stroke:#1C1D21;stroke-width:10;stroke-linecap:round;stroke-linejoin:round;stroke-miterlimit:10;}
	.st5{fill:#FDDF7F;}
	.st6{fill:#FFFFFF;}
</style>
<g>
	<g>
		<g>
			<path class="st3" d="M428.6,68.9c39.4,0,71.4,31.9,71.4,71.4v279.5V482c0,15.5-18.4,23.7-29.9,13.4l-64-57.4
				c-13.1-11.7-30.1-18.2-47.6-18.2H145.4c-39.4,0-71.4-31.9-71.4-71.4V140.2c0-39.4,31.9-71.4,71.4-71.4H428.6z"/>
		</g>
	</g>
	<g>
		<g>
			<path class="st0" d="M76.4,5C36.9,5,5,36.9,5,76.4v284.5v62.3c0,15.5,18.4,23.7,29.9,13.4l64-57.4c13.1-11.7,30.1-18.2,47.6-18.2
				h213.1c39.4,0,71.4-31.9,71.4-71.4V76.4C431,36.9,399,5,359.6,5H76.4z"/>
		</g>
	</g>
	<g>
		<g>
			<path class="st1" d="M5,173c-2.8,0-5-2.2-5-5v-65.9c0-2.8,2.2-5,5-5c2.8,0,5,2.2,5,5V168C10,170.7,7.8,173,5,173z"/>
		</g>
	</g>
	<g>
		<g>
			<path class="st1" d="M23,446.1c-3.2,0-6.4-0.7-9.4-2C5.2,440.3,0,432.3,0,423.1V229.9c0-2.8,2.2-5,5-5c2.8,0,5,2.2,5,5v193.2
				c0,5.3,2.9,9.7,7.7,11.8c4.8,2.1,10,1.3,13.9-2.2l64-57.4c14-12.6,32.1-19.5,51-19.5h213.1c36.6,0,66.4-29.8,66.4-66.4V76.4
				c0-36.6-29.8-66.4-66.4-66.4H76.4C39.8,10,10,39.8,10,76.4c0,2.8-2.2,5-5,5c-2.8,0-5-2.2-5-5C0,34.3,34.3,0,76.4,0h283.3
				C401.7,0,436,34.3,436,76.4v213.1c0,42.1-34.3,76.4-76.4,76.4H146.6c-16.4,0-32.1,6-44.3,17l-64,57.4
				C33.9,444,28.5,446.1,23,446.1z"/>
		</g>
	</g>
	<g>
		<g>
			<g>
				<circle class="st5" cx="123.5" cy="185.6" r="21.6"/>
			</g>
		</g>
		<g>
			<g>
				<circle class="st5" cx="218" cy="185.6" r="21.6"/>
			</g>
		</g>
		<g>
			<g>
				<circle class="st5" cx="312.5" cy="185.6" r="21.6"/>
			</g>
		</g>
	</g>
	<g>
		<g>
			<g>
				<path class="st1" d="M123.5,212.3c-14.7,0-26.6-12-26.6-26.6c0-14.7,12-26.6,26.6-26.6c14.7,0,26.6,12,26.6,26.6
					C150.2,200.3,138.2,212.3,123.5,212.3z M123.5,169c-9.2,0-16.6,7.5-16.6,16.6s7.5,16.6,16.6,16.6s16.6-7.5,16.6-16.6
					S132.7,169,123.5,169z"/>
			</g>
		</g>
		<g>
			<g>
				<path class="st1" d="M218,212.3c-14.7,0-26.6-12-26.6-26.6c0-14.7,12-26.6,26.6-26.6c14.7,0,26.6,12,26.6,26.6
					C244.6,200.3,232.7,212.3,218,212.3z M218,169c-9.2,0-16.6,7.5-16.6,16.6s7.5,16.6,16.6,16.6c9.2,0,16.6-7.5,16.6-16.6
					S227.2,169,218,169z"/>
			</g>
		</g>
		<g>
			<g>
				<path class="st1" d="M312.5,212.3c-14.7,0-26.6-12-26.6-26.6c0-14.7,12-26.6,26.6-26.6c14.7,0,26.6,12,26.6,26.6
					C339.1,200.3,327.2,212.3,312.5,212.3z M312.5,169c-9.2,0-16.6,7.5-16.6,16.6s7.5,16.6,16.6,16.6s16.6-7.5,16.6-16.6
					S321.7,169,312.5,169z"/>
			</g>
		</g>
	</g>
</g>
</svg>
