<?xml version="1.0" encoding="utf-8"?>
<!-- Generator: Adobe Illustrator 19.2.0, SVG Export Plug-In . SVG Version: 6.00 Build 0)  -->
<svg version="1.1" id="Layer_1" xmlns="http://www.w3.org/2000/svg" xmlns:xlink="http://www.w3.org/1999/xlink" x="0px" y="0px"
	 viewBox="0 0 500 500" style="enable-background:new 0 0 500 500;" xml:space="preserve">
<style type="text/css">
	.st0{fill:#ECF4F7;}
	.st1{fill:#1C1D21;}
	.st2{fill:#83E1E5;}
	.st3{fill:#AAB1BA;}
	.st4{fill:none;stroke:#1C1D21;stroke-width:10;stroke-linecap:round;stroke-linejoin:round;stroke-miterlimit:10;}
	.st5{fill:#FDDF7F;}
	.st6{fill:#FFFFFF;}
</style>
<g>
	<g>
		<g>
			<path class="st0" d="M250,123.7c18.8,0,36.6,4.1,52.6,11.5c7.7,3.5,16.7,2,22.7-3.9l57.9-57.9c9.1-9.1,7.3-24.3-3.6-31.1
				C342.1,18.6,297.6,5,250,5c-47.6,0-92.1,13.6-129.7,37.1c-10.9,6.8-12.7,22-3.6,31.1l57.9,57.9c6,6,15,7.5,22.7,3.9
				C213.4,127.8,231.2,123.7,250,123.7z"/>
		</g>
	</g>
	<g>
		<g>
			<path class="st0" d="M376.3,250c0,18.8-4.1,36.6-11.5,52.6c-3.5,7.7-2,16.7,3.9,22.7l57.9,57.9c9.1,9.1,24.3,7.3,31.1-3.6
				C481.4,342.1,495,297.6,495,250s-13.6-92.1-37.1-129.7c-6.8-10.9-22-12.7-31.1-3.6l-57.9,57.9c-6,6-7.5,15-3.9,22.7
				C372.2,213.4,376.3,231.2,376.3,250z"/>
		</g>
	</g>
	<g>
		<g>
			<path class="st0" d="M250,376.3c-18.8,0-36.6-4.1-52.6-11.5c-7.7-3.5-16.7-2-22.7,3.9l-57.9,57.9c-9.1,9.1-7.3,24.3,3.6,31.1
				C157.9,481.4,202.4,495,250,495c47.6,0,92.1-13.6,129.7-37.1c10.9-6.8,12.7-22,3.6-31.1l-57.9-57.9c-6-6-15-7.5-22.7-3.9
				C286.6,372.2,268.8,376.3,250,376.3z"/>
		</g>
	</g>
	<g>
		<g>
			<path class="st0" d="M123.7,250c0-18.8,4.1-36.6,11.5-52.6c3.5-7.7,2-16.7-3.9-22.7l-57.9-57.9c-9.1-9.1-24.3-7.3-31.1,3.6
				C18.6,157.9,5,202.4,5,250s13.6,92.1,37.1,129.7c6.8,10.9,22,12.7,31.1,3.6l57.9-57.9c6-6,7.5-15,3.9-22.7
				C127.8,286.6,123.7,268.8,123.7,250z"/>
		</g>
	</g>
	<g>
		<g>
			<path class="st2" d="M295.6,185.1l-6.9,6.9c-2.9,2.9-7.2,3.7-10.9,1.9c-2.6-1.3-5.2-2.4-7.9-3.3c-3.8-1.3-6.4-5-6.4-9v-9.7
				c0-5.3-4.3-9.6-9.6-9.6h-8.2c-5.3,0-9.6,4.3-9.6,9.6l0,9.7c0,4.1-2.5,7.7-6.4,9c-2.7,0.9-5.3,2-7.9,3.3c-3.6,1.8-8,1-10.9-1.9
				l-6.9-6.9c-3.7-3.7-9.8-3.7-13.5,0l-5.8,5.8c-3.7,3.7-3.7,9.8,0,13.5l6.9,6.9c2.9,2.9,3.7,7.2,1.9,10.9c-1.3,2.6-2.4,5.2-3.3,7.9
				c-1.3,3.8-5,6.4-9,6.4l-9.7,0c-5.3,0-9.6,4.3-9.6,9.6v8.2c0,5.3,4.3,9.6,9.6,9.6h9.7c4.1,0,7.7,2.5,9,6.4c0.9,2.7,2,5.3,3.3,7.9
				c1.8,3.6,1,8-1.9,10.9l-6.9,6.9c-3.7,3.7-3.7,9.8,0,13.5l5.8,5.8c3.7,3.7,9.8,3.7,13.5,0l6.9-6.9c2.9-2.9,7.2-3.7,10.9-1.9
				c2.6,1.3,5.2,2.4,7.9,3.3c3.8,1.3,6.4,5,6.4,9v9.7c0,5.3,4.3,9.6,9.6,9.6l8.2,0c5.3,0,9.6-4.3,9.6-9.6l0-9.7c0-4.1,2.5-7.7,6.4-9
				c2.7-0.9,5.3-2,7.9-3.3c3.6-1.8,8-1,10.9,1.9l6.9,6.9c3.7,3.7,9.8,3.7,13.5,0l5.8-5.8c3.7-3.7,3.7-9.8,0-13.5l-6.9-6.9
				c-2.9-2.9-3.7-7.2-1.9-10.9c1.3-2.6,2.4-5.2,3.3-7.9c1.3-3.8,5-6.4,9-6.4l9.7,0c5.3,0,9.6-4.3,9.6-9.6l0-8.2
				c0-5.3-4.3-9.6-9.6-9.6h-9.7c-4.1,0-7.7-2.5-9-6.4c-0.9-2.7-2-5.3-3.3-7.9c-1.8-3.6-1-8,1.9-10.9l6.9-6.9c3.7-3.7,3.7-9.8,0-13.5
				l-5.8-5.8C305.4,181.4,299.3,181.4,295.6,185.1z M270.6,270.6c-11.4,11.4-29.8,11.4-41.2,0c-11.4-11.4-11.4-29.8,0-41.2
				s29.8-11.4,41.2,0C282,240.8,282,259.2,270.6,270.6z"/>
		</g>
	</g>
	<g>
		<g>
			<path class="st1" d="M254.1,342.7h-8.2c-8,0-14.6-6.5-14.6-14.6v-9.7c0-2-1.2-3.7-3-4.3c-2.9-1-5.8-2.2-8.5-3.5
				c-1.7-0.8-3.7-0.5-5.1,0.9l-6.9,6.9c-5.7,5.7-14.9,5.7-20.6,0l-5.8-5.8c-5.7-5.7-5.7-14.9,0-20.6l6.9-6.9
				c1.4-1.4,1.8-3.4,0.9-5.1c-1.4-2.7-2.5-5.6-3.5-8.5c-0.6-1.8-2.3-3-4.3-3h-9.7c-8,0-14.6-6.5-14.6-14.6v-8.2
				c0-8,6.5-14.6,14.6-14.6h9.7c2,0,3.7-1.2,4.3-3c1-2.9,2.2-5.8,3.5-8.5c0.8-1.7,0.5-3.7-0.9-5.1l-6.9-6.9
				c-5.7-5.7-5.7-14.9,0-20.6l5.8-5.8c5.7-5.7,14.9-5.7,20.6,0l6.9,6.9c1.4,1.4,3.4,1.8,5.1,0.9c2.7-1.4,5.6-2.5,8.5-3.5
				c1.8-0.6,3-2.3,3-4.3v-9.7c0-8,6.5-14.6,14.6-14.6h8.2c8,0,14.6,6.5,14.6,14.6v9.7c0,2,1.2,3.7,3,4.3c2.9,1,5.8,2.2,8.5,3.5
				c1.7,0.8,3.7,0.5,5.1-0.9l6.9-6.9c0,0,0,0,0,0c5.7-5.7,14.9-5.7,20.6,0l5.8,5.8c5.7,5.7,5.7,14.9,0,20.6l-6.9,6.9
				c-1.4,1.4-1.8,3.4-0.9,5.1c1.4,2.7,2.5,5.6,3.5,8.5c0.6,1.8,2.3,3,4.3,3h9.7c8,0,14.6,6.5,14.6,14.6v8.2c0,8-6.5,14.6-14.6,14.6
				h-9.7c-2,0-3.7,1.2-4.3,3c-1,2.9-2.2,5.8-3.5,8.5c-0.8,1.7-0.5,3.7,0.9,5.1l6.9,6.9c5.7,5.7,5.7,14.9,0,20.6l-5.8,5.8
				c-5.7,5.7-14.9,5.7-20.6,0l-6.9-6.9c-1.4-1.4-3.4-1.8-5.1-0.9c-2.7,1.4-5.6,2.5-8.5,3.5c-1.8,0.6-3,2.3-3,4.3v9.7
				C268.6,336.1,262.1,342.7,254.1,342.7z M218,300.2c2.1,0,4.3,0.5,6.3,1.5c2.3,1.2,4.8,2.2,7.2,3c5.9,2,9.8,7.5,9.8,13.7v9.7
				c0,2.5,2,4.6,4.6,4.6h8.2c2.5,0,4.6-2,4.6-4.6v-9.7c0-6.3,3.9-11.8,9.8-13.7c2.5-0.8,4.9-1.8,7.2-3c5.5-2.7,12.2-1.6,16.6,2.8
				l6.9,6.9c1.8,1.8,4.7,1.8,6.4,0l5.8-5.8c1.8-1.8,1.8-4.7,0-6.4l-6.9-6.9c-4.4-4.4-5.6-11.1-2.8-16.6c1.2-2.3,2.2-4.8,3-7.2
				c2-5.9,7.5-9.8,13.7-9.8h9.7c2.5,0,4.6-2,4.6-4.6v-8.2c0-2.5-2-4.6-4.6-4.6h-9.7c-6.3,0-11.8-3.9-13.7-9.8
				c-0.8-2.5-1.8-4.9-3-7.2c-2.7-5.5-1.6-12.2,2.8-16.6l6.9-6.9c1.8-1.8,1.8-4.7,0-6.4l-5.8-5.8c-1.8-1.8-4.7-1.8-6.4,0l-6.9,6.9
				c-4.4,4.4-11.1,5.6-16.6,2.8c-2.3-1.2-4.8-2.2-7.2-3c-5.9-2-9.8-7.5-9.8-13.7v-9.7c0-2.5-2-4.6-4.6-4.6h-8.2
				c-2.5,0-4.6,2-4.6,4.6v9.7c0,6.3-3.9,11.8-9.8,13.7c-2.5,0.8-4.9,1.8-7.2,3c-5.5,2.7-12.2,1.6-16.6-2.8l-6.9-6.9
				c-1.8-1.8-4.7-1.8-6.4,0l-5.8,5.8c-1.8,1.8-1.8,4.7,0,6.4l6.9,6.9c4.4,4.4,5.6,11.1,2.8,16.6c-1.2,2.3-2.2,4.8-3,7.2
				c-2,5.9-7.5,9.8-13.7,9.8h-9.7c-2.5,0-4.6,2-4.6,4.6v8.2c0,2.5,2,4.6,4.6,4.6h9.7c6.3,0,11.8,3.9,13.7,9.8c0.8,2.5,1.8,4.9,3,7.2
				c2.7,5.5,1.6,12.2-2.8,16.6l-6.9,6.9c-1.8,1.8-1.8,4.7,0,6.4l5.8,5.8c1.8,1.8,4.7,1.8,6.4,0l6.9-6.9
				C210.5,301.7,214.3,300.2,218,300.2z M250,284.1c-8.7,0-17.5-3.3-24.1-10c-6.4-6.4-10-15-10-24.1s3.5-17.7,10-24.1
				c6.4-6.4,15-10,24.1-10s17.7,3.5,24.1,10c13.3,13.3,13.3,35,0,48.3C267.5,280.8,258.7,284.1,250,284.1z M250,225.9
				c-6.4,0-12.5,2.5-17.1,7.1c-4.6,4.6-7.1,10.6-7.1,17.1s2.5,12.5,7.1,17.1c9.4,9.4,24.7,9.4,34.1,0c9.4-9.4,9.4-24.7,0-34.1
				C262.5,228.4,256.4,225.9,250,225.9z"/>
		</g>
	</g>
	<g>
		<g>
			<path class="st1" d="M311.2,142c-3.6,0-7.2-0.8-10.6-2.3c-15.9-7.3-32.9-11-50.6-11s-34.7,3.7-50.6,11
				c-9.6,4.4-20.9,2.4-28.3-4.9l-57.9-57.9c-5.4-5.4-8-12.9-7.2-20.5c0.9-7.6,5.1-14.3,11.6-18.4C157.3,13.1,203.1,0,250,0
				s92.7,13.1,132.3,37.9c6.5,4.1,10.8,10.8,11.6,18.4c0.9,7.6-1.7,15.1-7.2,20.5l-57.9,57.9C324.1,139.5,317.7,142,311.2,142z
				 M250,118.7c19.1,0,37.5,4,54.7,11.9c5.8,2.7,12.6,1.5,17-2.9l57.9-57.9c3.2-3.2,4.8-7.7,4.3-12.3c-0.5-4.6-3.1-8.6-7-11.1
				C339,22.6,295.1,10,250,10c-45.1,0-89,12.6-127,36.4c-3.9,2.5-6.5,6.5-7,11.1c-0.5,4.6,1,9,4.3,12.3l57.9,57.9
				c4.4,4.4,11.3,5.6,17,2.9C212.5,122.7,230.9,118.7,250,118.7z"/>
		</g>
	</g>
	<g>
		<g>
			<path class="st1" d="M440.8,394.1c-6.6,0-12.9-2.6-17.6-7.3l-57.9-57.9c-7.4-7.4-9.3-18.7-4.9-28.3c7.3-15.9,11-32.9,11-50.6
				s-3.7-34.7-11-50.6c-4.4-9.6-2.4-20.9,4.9-28.3l57.9-57.9c5.4-5.4,12.9-8,20.5-7.2c7.6,0.9,14.3,5.1,18.4,11.6
				C486.9,157.3,500,203.1,500,250s-13.1,92.7-37.9,132.3c-4.1,6.5-10.8,10.8-18.4,11.6C442.7,394.1,441.8,394.1,440.8,394.1z
				 M440.9,115.9c-4,0-7.7,1.6-10.6,4.4l-57.9,57.9c-4.4,4.4-5.6,11.3-2.9,17c7.9,17.2,11.9,35.6,11.9,54.7s-4,37.5-11.9,54.7
				c-2.7,5.8-1.5,12.6,2.9,17l57.9,57.9c3.2,3.2,7.7,4.8,12.3,4.3c4.6-0.5,8.6-3.1,11.1-7c23.8-38,36.4-82,36.4-127
				s-12.6-89-36.4-127c-2.5-3.9-6.5-6.5-11.1-7C442,115.9,441.4,115.9,440.9,115.9z"/>
		</g>
	</g>
	<g>
		<g>
			<path class="st1" d="M250,500c-46.9,0-92.7-13.1-132.3-37.9c-6.5-4.1-10.8-10.8-11.6-18.4c-0.9-7.6,1.7-15.1,7.2-20.5l57.9-57.9
				c7.4-7.4,18.7-9.3,28.3-4.9c15.9,7.3,32.9,11,50.6,11s34.7-3.7,50.6-11c9.6-4.4,20.9-2.4,28.3,4.9l57.9,57.9
				c5.4,5.4,8,12.9,7.2,20.5c-0.9,7.6-5.1,14.3-11.6,18.4C342.7,486.9,296.9,500,250,500z M188.8,368c-3.9,0-7.8,1.5-10.6,4.3
				l-57.9,57.9c-3.2,3.2-4.8,7.7-4.3,12.3c0.5,4.6,3.1,8.6,7,11.1c38,23.8,82,36.4,127,36.4c45.1,0,89-12.6,127-36.4
				c3.9-2.5,6.5-6.5,7-11.1c0.5-4.6-1-9-4.3-12.3l-57.9-57.9c-4.4-4.4-11.3-5.6-17-2.9c-17.2,7.9-35.6,11.9-54.7,11.9
				c-19.1,0-37.5-4-54.7-11.9C193.2,368.5,191,368,188.8,368z"/>
		</g>
	</g>
	<g>
		<g>
			<path class="st1" d="M59.2,394.1c-1,0-1.9-0.1-2.9-0.2c-7.6-0.9-14.3-5.1-18.4-11.6C13.1,342.7,0,296.9,0,250
				s13.1-92.7,37.9-132.3c4.1-6.5,10.8-10.8,18.4-11.6c7.6-0.9,15.1,1.7,20.5,7.2l57.9,57.9c7.4,7.4,9.3,18.7,4.9,28.3
				c-7.3,15.9-11,32.9-11,50.6s3.7,34.7,11,50.6c4.4,9.6,2.4,20.9-4.9,28.3l-57.9,57.9C72.1,391.5,65.8,394.1,59.2,394.1z
				 M59.1,115.9c-0.6,0-1.1,0-1.7,0.1c-4.6,0.5-8.6,3.1-11.1,7C22.6,161,10,204.9,10,250s12.6,89,36.4,127c2.5,3.9,6.5,6.5,11.1,7
				c4.6,0.5,9-1,12.3-4.3l57.9-57.9c4.4-4.4,5.6-11.3,2.9-17c-7.9-17.2-11.9-35.6-11.9-54.7s4-37.5,11.9-54.7
				c2.7-5.8,1.5-12.6-2.9-17l-57.9-57.9C66.9,117.4,63.1,115.9,59.1,115.9z"/>
		</g>
	</g>
</g>
</svg>
