<?xml version="1.0" encoding="utf-8"?>
<!-- Generator: Adobe Illustrator 19.2.0, SVG Export Plug-In . SVG Version: 6.00 Build 0)  -->
<svg version="1.1" id="Layer_1" xmlns="http://www.w3.org/2000/svg" xmlns:xlink="http://www.w3.org/1999/xlink" x="0px" y="0px"
	 viewBox="0 0 500 500" style="enable-background:new 0 0 500 500;" xml:space="preserve">
<style type="text/css">
	.st0{fill:#ECF4F7;}
	.st1{fill:#1C1D21;}
	.st2{fill:#83E1E5;}
	.st3{fill:#AAB1BA;}
	.st4{fill:none;stroke:#1C1D21;stroke-width:10;stroke-linecap:round;stroke-linejoin:round;stroke-miterlimit:10;}
	.st5{fill:#FDDF7F;}
	.st6{fill:#FFFFFF;}
</style>
<g>
	<g>
		<g>
			<path class="st0" d="M250,297.4h20c11.1,0,21.6-4.6,29.2-12.7l0,0c6.9-7.4,10.7-17.1,10.7-27.2v-79.4
				c0-62.8-21.1-123.8-59.9-173.2v0l0,0l0,0v0c-38.8,49.4-59.9,110.4-59.9,173.2v79.4c0,10.1,3.8,19.8,10.7,27.2l0,0
				c7.5,8.1,18.1,12.7,29.2,12.7H250"/>
		</g>
	</g>
	<g>
		<g>
			<path class="st0" d="M250,297.4h8c8.8,0,17.2,3.5,23.5,9.7l0,0c6.2,6.2,9.7,14.7,9.7,23.5v35.3H250h0h-41.2v-35.3
				c0-8.8,3.5-17.2,9.7-23.5h0c6.2-6.2,14.7-9.7,23.5-9.7H250"/>
		</g>
	</g>
	<g>
		<g>
			<path class="st5" d="M271.6,365.9v4.4c0,19-5.5,37.5-15.8,53.5l-5.8,9h0l-5.8-9c-10.3-15.9-15.8-34.5-15.8-53.5v-4.4H271.6z"/>
		</g>
	</g>
	<g>
		<g>
			<path class="st1" d="M270,302.4h-20c0,0,0,0,0,0h-20c-12.4,0-24.4-5.2-32.8-14.3c-7.8-8.3-12.1-19.2-12.1-30.6v-79.4
				c0-63.6,21.6-126.2,61-176.2C247,0.7,248.5,0,250,0c0.5,0,1,0.1,1.5,0.2c1,0.3,1.9,0.9,2.5,1.7c39.3,50,61,112.6,61,176.2v79.4
				c0,11.4-4.3,22.3-12.1,30.6C294.4,297.2,282.4,302.4,270,302.4z M250,13.2c-35.5,47.4-54.9,105.7-54.9,165v79.4
				c0,8.9,3.3,17.3,9.4,23.8c6.6,7,15.9,11.1,25.5,11.1h20c0,0,0,0,0,0h20c9.6,0,18.9-4,25.5-11.1c6-6.5,9.4-14.9,9.4-23.8v-79.4
				C304.9,118.9,285.5,60.6,250,13.2z"/>
		</g>
	</g>
	<g>
		<g>
			<path class="st1" d="M291.2,370.9h-82.5c-2.8,0-5-2.2-5-5v-35.3c0-10.2,4-19.8,11.2-27c7.2-7.2,16.8-11.2,27-11.2h8c0,0,0,0,0,0
				h8c10.2,0,19.8,4,27,11.2c7.2,7.2,11.2,16.8,11.2,27v35.3C296.2,368.6,294,370.9,291.2,370.9z M213.8,360.9h72.5v-30.3
				c0-7.5-2.9-14.6-8.3-19.9c-5.3-5.3-12.4-8.3-19.9-8.3h-8c0,0,0,0,0,0h-8c-7.5,0-14.6,2.9-19.9,8.3c-5.3,5.3-8.3,12.4-8.3,19.9
				V360.9z"/>
		</g>
	</g>
	<g>
		<g>
			<circle class="st2" cx="250" cy="108.6" r="21.6"/>
		</g>
	</g>
	<g>
		<g>
			<path class="st1" d="M250,135.2c-14.7,0-26.6-11.9-26.6-26.6S235.4,82,250,82c14.7,0,26.6,11.9,26.6,26.6S264.7,135.2,250,135.2z
				 M250,92c-9.1,0-16.6,7.4-16.6,16.6c0,9.1,7.4,16.6,16.6,16.6c9.1,0,16.6-7.4,16.6-16.6C266.6,99.5,259.2,92,250,92z"/>
		</g>
	</g>
	<g>
		<g>
			<path class="st1" d="M250,437.8c-1.8,0-3.5-1-4.4-2.5l-5.7-8.8c-10.8-16.8-16.6-36.2-16.6-56.2v-4.4c0-2.8,2.2-5,5-5h43.1
				c2.8,0,5,2.2,5,5v4.4c0,20-5.7,39.4-16.6,56.2l-5.6,8.7c0,0,0,0,0,0C253.5,436.8,251.9,437.8,250,437.8z M233.4,370.9
				c0.1,17.8,5.3,35.2,15,50.2l1.6,2.5l1.6-2.5c9.7-15,14.8-32.3,15-50.2H233.4z"/>
		</g>
	</g>
	<g>
		<g>
			<path class="st1" d="M250,457.2c-2.8,0-5-2.2-5-5v-19.4c0-2.8,2.2-5,5-5s5,2.2,5,5v19.4C255,455,252.8,457.2,250,457.2z"/>
		</g>
	</g>
	<g>
		<g>
			<path class="st1" d="M250,483.6c-2.8,0-5-2.2-5-5v-9.1c0-2.8,2.2-5,5-5s5,2.2,5,5v9.1C255,481.4,252.8,483.6,250,483.6z"/>
		</g>
	</g>
	<g>
		<g>
			<path class="st1" d="M250,500c-1.3,0-2.6-0.5-3.5-1.5c-0.9-0.9-1.5-2.2-1.5-3.5c0-1.3,0.5-2.6,1.5-3.5c0.9-0.9,2.2-1.5,3.5-1.5
				c1.3,0,2.6,0.5,3.5,1.5c0.9,0.9,1.5,2.2,1.5,3.5c0,1.3-0.5,2.6-1.5,3.5C252.6,499.5,251.3,500,250,500z"/>
		</g>
	</g>
	<g>
		<g>
			<path class="st3" d="M190.1,164.6l-30.1,33.7c-13.7,15.4-21.3,35.2-21.3,55.8v37.3l51.3-49V164.6z"/>
		</g>
	</g>
	<g>
		<g>
			<path class="st3" d="M309.9,164.6l30.1,33.7c13.7,15.4,21.3,35.2,21.3,55.8v37.3l-51.3-49V164.6z"/>
		</g>
	</g>
	<g>
		<g>
			<path class="st1" d="M138.8,296.5c-0.7,0-1.3-0.1-2-0.4c-1.8-0.8-3-2.6-3-4.6v-37.3c0-21.8,8-42.8,22.5-59.1l30.1-33.7
				c1.4-1.5,3.6-2.1,5.5-1.3c1.9,0.7,3.2,2.6,3.2,4.7v77.9c0,1.4-0.6,2.7-1.5,3.6l-51.3,49C141.3,296,140,296.5,138.8,296.5z
				 M185.1,177.7l-21.3,23.9c-12.9,14.5-20,33.1-20,52.5v25.7l41.3-39.5V177.7z"/>
		</g>
	</g>
	<g>
		<g>
			<path class="st1" d="M361.3,296.5c-1.3,0-2.5-0.5-3.5-1.4l-51.3-49c-1-0.9-1.5-2.3-1.5-3.6v-77.9c0-2.1,1.3-3.9,3.2-4.7
				c1.9-0.7,4.1-0.2,5.5,1.3l30.1,33.7c14.5,16.3,22.5,37.3,22.5,59.1v37.3c0,2-1.2,3.8-3,4.6C362.6,296.3,361.9,296.5,361.3,296.5z
				 M314.9,240.3l41.3,39.5v-25.7c0-19.4-7.1-38-20-52.5l-21.3-23.9V240.3z"/>
		</g>
	</g>
	<g>
		<g>
			<path class="st1" d="M291.2,347h-82.5c-2.8,0-5-2.2-5-5s2.2-5,5-5h82.5c2.8,0,5,2.2,5,5S294,347,291.2,347z"/>
		</g>
	</g>
</g>
</svg>
