<svg xmlns="http://www.w3.org/2000/svg" viewBox="0 0 124 108"><defs><style>.cls-1,.cls-2,.cls-3{fill:none;stroke:#333;}.cls-1,.cls-2{stroke-linecap:round;stroke-linejoin:round;}.cls-1,.cls-3{stroke-width:2px;}.cls-2{stroke-width:4px;}.cls-3{stroke-miterlimit:10;}.cls-4{fill:#333;}</style></defs><title>Products - Products List</title><g id="Layer_2" data-name="Layer 2"><g id="Products_-_Products_List" data-name="Products - Products List"><g id="Products_-_Products_List-2" data-name="Products - Products List"><line class="cls-1" x1="51" y1="20" x2="101" y2="20"/><line class="cls-1" x1="51" y1="27" x2="101" y2="27"/><line class="cls-1" x1="51" y1="34" x2="81" y2="34"/><line class="cls-1" x1="51" y1="78" x2="101" y2="78"/><line class="cls-1" x1="51" y1="85" x2="101" y2="85"/><line class="cls-1" x1="51" y1="92" x2="81" y2="92"/><path class="cls-2" d="M116.7,8.06A12,12,0,0,1,122,18V37a12,12,0,0,1-12,12H14A12,12,0,0,1,2,37V18A12,12,0,0,1,14,6H80.8"/><path class="cls-3" d="M97.69,1h2.39a.7.7,0,0,1,.67.5,2.44,2.44,0,0,0,4.5,0,.7.7,0,0,1,.67-.5h2.39a.69.69,0,0,1,.69.69V4a.69.69,0,0,1-.69.7h-.62a.69.69,0,0,0-.69.69v7a.69.69,0,0,1-.69.69H99.69a.69.69,0,0,1-.69-.69V5.36a.69.69,0,0,0-.69-.69h-.62A.69.69,0,0,1,97,4V1.69A.69.69,0,0,1,97.69,1Z"/><circle class="cls-4" cx="88" cy="6" r="2"/><path class="cls-2" d="M116.7,65.06A12,12,0,0,1,122,75V94a12,12,0,0,1-12,12H14A12,12,0,0,1,2,94V75A12,12,0,0,1,14,63H80.8"/><path class="cls-3" d="M97.69,58h2.39a.7.7,0,0,1,.67.5,2.44,2.44,0,0,0,4.5,0,.7.7,0,0,1,.67-.5h2.39a.69.69,0,0,1,.69.69V61a.69.69,0,0,1-.69.7h-.62a.69.69,0,0,0-.69.69v7a.69.69,0,0,1-.69.69H99.69a.69.69,0,0,1-.69-.69v-7a.69.69,0,0,0-.69-.69h-.62A.69.69,0,0,1,97,61V58.69A.69.69,0,0,1,97.69,58Z"/><circle class="cls-4" cx="88" cy="63" r="2"/><path class="cls-3" d="M21.15,17h4a1.15,1.15,0,0,1,1.11.84c.28,1,1.13,2.49,3.75,2.49s3.47-1.5,3.75-2.49A1.15,1.15,0,0,1,34.86,17h4A1.16,1.16,0,0,1,40,18.15V22a1.16,1.16,0,0,1-1.15,1.15h-1a1.15,1.15,0,0,0-1.15,1.15V35.85A1.16,1.16,0,0,1,35.51,37h-11a1.16,1.16,0,0,1-1.16-1.15V24.26a1.15,1.15,0,0,0-1.15-1.15h-1A1.16,1.16,0,0,1,20,22V18.15A1.16,1.16,0,0,1,21.15,17Z"/><path class="cls-3" d="M21.15,75h4a1.15,1.15,0,0,1,1.11.84c.28,1,1.13,2.49,3.75,2.49s3.47-1.5,3.75-2.49A1.15,1.15,0,0,1,34.86,75h4A1.16,1.16,0,0,1,40,76.15V80a1.16,1.16,0,0,1-1.15,1.15h-1a1.15,1.15,0,0,0-1.15,1.15V93.85A1.16,1.16,0,0,1,35.51,95h-11a1.16,1.16,0,0,1-1.16-1.15V82.26a1.15,1.15,0,0,0-1.15-1.15h-1A1.16,1.16,0,0,1,20,80V76.15A1.16,1.16,0,0,1,21.15,75Z"/></g></g></g></svg>