<?xml version="1.0" encoding="utf-8"?>
<!-- Generator: Adobe Illustrator 19.2.0, SVG Export Plug-In . SVG Version: 6.00 Build 0)  -->
<svg version="1.1" id="Layer_1" xmlns="http://www.w3.org/2000/svg" xmlns:xlink="http://www.w3.org/1999/xlink" x="0px" y="0px"
	 viewBox="0 0 500 500" style="enable-background:new 0 0 500 500;" xml:space="preserve">
<style type="text/css">
	.st0{fill:#ECF4F7;}
	.st1{fill:#1C1D21;}
	.st2{fill:#83E1E5;}
	.st3{fill:#AAB1BA;}
	.st4{fill:none;stroke:#1C1D21;stroke-width:10;stroke-linecap:round;stroke-linejoin:round;stroke-miterlimit:10;}
	.st5{fill:#FDDF7F;}
	.st6{fill:#FFFFFF;}
</style>
<g>
	<g>
		<g>
			<path class="st6" d="M377.4,68.7l-19.2,19.2c-8,8-20.2,10.3-30.3,5.2c-7.1-3.5-14.5-6.6-22-9.1c-10.7-3.6-17.8-13.9-17.8-25.2
				l0-27.1c0-14.7-12-26.7-26.7-26.7l-22.8,0c-14.7,0-26.7,12-26.7,26.7l0,27.1c0,11.3-7.1,21.6-17.8,25.2c-7.5,2.5-14.8,5.5-22,9.1
				c-10.1,5-22.3,2.7-30.3-5.2l-19.2-19.2c-10.4-10.4-27.3-10.4-37.8,0L68.7,84.8c-10.4,10.4-10.4,27.3,0,37.8l19.2,19.2
				c8,8,10.3,20.2,5.2,30.3c-3.5,7.1-6.6,14.5-9.1,22c-3.6,10.7-13.8,17.8-25.2,17.8l-27.1,0C17,211.9,5,223.8,5,238.6l0,22.8
				c0,14.7,12,26.7,26.7,26.7h27.1c11.3,0,21.6,7.1,25.2,17.8c2.5,7.5,5.5,14.8,9.1,22c5,10.1,2.7,22.3-5.2,30.3l-19.2,19.2
				c-10.4,10.4-10.4,27.3,0,37.8l16.2,16.2c10.4,10.4,27.3,10.4,37.8,0l19.2-19.2c8-8,20.2-10.3,30.3-5.2c7.1,3.5,14.5,6.6,22,9.1
				c10.7,3.6,17.8,13.9,17.8,25.2v27.1c0,14.7,12,26.7,26.7,26.7l22.8,0c14.7,0,26.7-12,26.7-26.7l0-27.1c0-11.3,7.1-21.6,17.8-25.2
				c7.5-2.5,14.8-5.5,22-9.1c10.1-5,22.3-2.7,30.3,5.2l19.2,19.2c10.4,10.4,27.3,10.4,37.8,0l16.2-16.2c10.4-10.4,10.4-27.3,0-37.8
				l-19.2-19.2c-8-8-10.3-20.2-5.2-30.3c3.5-7.1,6.6-14.5,9.1-22c3.6-10.7,13.9-17.8,25.2-17.8l27.1,0c14.7,0,26.7-12,26.7-26.7
				l0-22.8c0-14.7-12-26.7-26.7-26.7h-27.1c-11.3,0-21.6-7.1-25.2-17.8c-2.5-7.5-5.5-14.8-9.1-22c-5-10.1-2.7-22.3,5.2-30.3
				l19.2-19.2c10.4-10.4,10.4-27.3,0-37.8l-16.2-16.2C404.7,58.3,387.8,58.3,377.4,68.7z"/>
		</g>
	</g>
	<g>
		<g>
			<path class="st1" d="M261.4,500l-22.8,0c-17.5,0-31.7-14.2-31.7-31.7v-27.1c0-9.3-5.8-17.5-14.4-20.4c-7.7-2.6-15.3-5.7-22.6-9.4
				c-8.1-4-18-2.3-24.6,4.3l-19.2,19.2c-6,6-13.9,9.3-22.4,9.3c-8.5,0-16.4-3.3-22.4-9.3l-16.2-16.2c-12.4-12.4-12.4-32.5,0-44.8
				l19.2-19.2c6.6-6.6,8.3-16.5,4.3-24.6c-3.6-7.3-6.8-14.9-9.4-22.6c-2.9-8.6-11.1-14.4-20.4-14.4H31.7C14.2,293.1,0,278.9,0,261.4
				v-22.8c0-17.5,14.2-31.7,31.7-31.7l27.1,0c9.3,0,17.5-5.8,20.4-14.4c2.6-7.7,5.7-15.3,9.4-22.6c4-8.1,2.3-18-4.3-24.6l-19.2-19.2
				c-12.4-12.4-12.4-32.5,0-44.8l16.2-16.2c12.4-12.4,32.5-12.4,44.8,0l19.2,19.2c6.6,6.6,16.5,8.3,24.6,4.3
				c7.3-3.6,14.9-6.8,22.6-9.4c8.6-2.9,14.4-11.1,14.4-20.4l0-27.1c0-17.5,14.2-31.7,31.7-31.7l22.8,0c17.5,0,31.7,14.2,31.7,31.7
				v27.1c0,9.3,5.8,17.5,14.4,20.4c7.7,2.6,15.3,5.7,22.6,9.4c8.1,4,18,2.3,24.6-4.3l19.2-19.2c6-6,13.9-9.3,22.4-9.3
				s16.4,3.3,22.4,9.3l16.2,16.2c6,6,9.3,13.9,9.3,22.4c0,8.5-3.3,16.4-9.3,22.4l-19.2,19.2c-6.6,6.6-8.3,16.5-4.3,24.6
				c3.6,7.3,6.8,14.9,9.4,22.6c2.9,8.6,11.1,14.4,20.4,14.4h27.1c17.5,0,31.7,14.2,31.7,31.7v22.8c0,17.5-14.2,31.7-31.7,31.7
				l-27.1,0c-9.3,0-17.5,5.8-20.4,14.4c-2.6,7.7-5.7,15.3-9.4,22.6c-4,8.1-2.3,18,4.3,24.6l19.2,19.2c12.4,12.4,12.4,32.5,0,44.8
				l-16.2,16.2c-6,6-13.9,9.3-22.4,9.3s-16.4-3.3-22.4-9.3l-19.2-19.2c-6.6-6.6-16.5-8.3-24.6-4.3c-7.3,3.6-14.9,6.8-22.6,9.4
				c-8.6,2.9-14.4,11.1-14.4,20.4l0,27.1C293.1,485.8,278.9,500,261.4,500z M160.7,399.2c4.7,0,9.3,1,13.7,3.2
				c6.9,3.4,14,6.4,21.3,8.8c12.7,4.3,21.2,16.3,21.2,29.9v27.1c0,12,9.7,21.7,21.7,21.7l22.8,0c12,0,21.7-9.7,21.7-21.7l0-27.1
				c0-13.6,8.5-25.6,21.2-29.9c7.3-2.4,14.5-5.4,21.3-8.8c12-5.9,26.5-3.5,36.1,6.2l19.2,19.2c4.1,4.1,9.5,6.4,15.3,6.4
				c5.8,0,11.2-2.3,15.3-6.4l16.2-16.2c8.5-8.5,8.5-22.2,0-30.7l-19.2-19.2c-9.6-9.6-12.1-24.1-6.2-36.1c3.4-6.9,6.4-14,8.8-21.3
				c4.3-12.7,16.3-21.2,29.9-21.2l27.1,0c12,0,21.7-9.7,21.7-21.7v-22.8c0-12-9.7-21.7-21.7-21.7h-27.1c-13.6,0-25.6-8.5-29.9-21.2
				c-2.4-7.3-5.4-14.5-8.8-21.3c-5.9-12-3.5-26.5,6.2-36.1l19.2-19.2c4.1-4.1,6.4-9.5,6.4-15.3c0-5.8-2.3-11.2-6.4-15.3l-16.2-16.2
				c-4.1-4.1-9.5-6.4-15.3-6.4c-5.8,0-11.2,2.3-15.3,6.4v0l-19.2,19.2c-9.6,9.6-24.1,12.1-36.1,6.2c-6.9-3.4-14-6.4-21.3-8.8
				c-12.7-4.3-21.2-16.3-21.2-29.9V31.7c0-12-9.7-21.7-21.7-21.7l-22.8,0c-12,0-21.7,9.7-21.7,21.7l0,27.1
				c0,13.6-8.5,25.6-21.2,29.9c-7.3,2.4-14.5,5.4-21.3,8.8c-12,5.9-26.5,3.5-36.1-6.2l-19.2-19.2c-8.5-8.5-22.2-8.5-30.7,0
				L72.2,88.4c-8.5,8.5-8.5,22.2,0,30.7l19.2,19.2c9.6,9.6,12.1,24.1,6.2,36.1c-3.4,6.9-6.4,14-8.8,21.3
				c-4.3,12.7-16.3,21.2-29.9,21.2l-27.1,0c-12,0-21.7,9.7-21.7,21.7v22.8c0,12,9.7,21.7,21.7,21.7h27.1c13.6,0,25.6,8.5,29.9,21.2
				c2.4,7.3,5.4,14.5,8.8,21.3c5.9,12,3.5,26.5-6.2,36.1l-19.2,19.2c-8.5,8.5-8.5,22.2,0,30.7l16.2,16.2c4.1,4.1,9.5,6.4,15.3,6.4
				s11.2-2.3,15.3-6.4l19.2-19.2C144.4,402.5,152.5,399.2,160.7,399.2z M377.4,68.7L377.4,68.7L377.4,68.7z"/>
		</g>
	</g>
	<g>
		<g>
			<path class="st2" d="M250,377.6c-70.3,0-127.5-57.2-127.5-127.5c0-70.3,57.2-127.5,127.5-127.5c70.3,0,127.5,57.2,127.5,127.5
				C377.5,320.4,320.3,377.6,250,377.6z"/>
		</g>
	</g>
	<g>
		<g>
			<g>
				<path class="st1" d="M137.3,196.5c-0.8,0-1.6-0.2-2.3-0.6c-2.4-1.3-3.4-4.3-2.1-6.7c12.3-23.7,31.3-42.9,54.9-55.6
					c2.4-1.3,5.5-0.4,6.8,2c1.3,2.4,0.4,5.5-2,6.8c-21.8,11.7-39.3,29.4-50.7,51.4C140.8,195.5,139.1,196.5,137.3,196.5z"/>
			</g>
		</g>
		<g>
			<g>
				<path class="st1" d="M250,382c-72.8,0-132-59.2-132-132c0-7.5,0.6-15,1.9-22.3c0.5-2.7,3-4.6,5.8-4.1c2.7,0.5,4.6,3,4.1,5.8
					c-1.2,6.8-1.7,13.7-1.7,20.7c0,67.3,54.7,122,122,122s122-54.7,122-122c0-61.6-46-113.7-107.1-121.1c-2.7-0.3-4.7-2.8-4.4-5.6
					c0.3-2.7,2.8-4.7,5.6-4.4c66.1,8,115.9,64.3,115.9,131C382,322.8,322.8,382,250,382z"/>
			</g>
		</g>
		<g>
			<g>
				<path class="st1" d="M223.8,130.7c-2.3,0-4.4-1.6-4.9-4c-0.6-2.7,1.2-5.4,3.9-5.9c4.3-0.9,8.7-1.6,13-2.1
					c2.7-0.3,5.2,1.7,5.5,4.4c0.3,2.7-1.7,5.2-4.4,5.5c-4,0.4-8.1,1.1-12,1.9C224.5,130.7,224.1,130.7,223.8,130.7z"/>
			</g>
		</g>
	</g>
	<g>
		<g>
			<g>
				<path class="st6" d="M314,222.3l11.5-11.5c3.2-3.2,3.2-8.5,0-11.7l0,0c-3.2-3.2-8.5-3.2-11.7,0l-7.1,7.1
					c-1.9,1.9-4.5,2.8-7.2,2.6l0,0c-4.4-0.4-7.8-3.8-8.2-8.2l0,0c-0.2-2.7,0.7-5.3,2.6-7.2l7.1-7.1c3.2-3.2,3.2-8.5,0-11.7l0,0
					c-3.2-3.2-8.5-3.2-11.7,0L277.7,186c-1.7,1.7-2.6,4-2.6,6.4v12.7c0,2.4-1,4.7-2.6,6.4l-60.9,60.9c-1.7,1.7-4,2.6-6.4,2.6h-12.7
					c-2.4,0-4.7,1-6.4,2.6l-11.5,11.5c-3.2,3.2-3.2,8.5,0,11.7l0,0c3.2,3.2,8.5,3.2,11.7,0l7.1-7.1c1.9-1.9,4.5-2.8,7.2-2.6l0,0
					c4.4,0.4,7.8,3.8,8.2,8.2l0,0c0.2,2.7-0.7,5.3-2.6,7.2l-7.1,7.1c-3.2,3.2-3.2,8.5,0,11.7l0,0c3.2,3.2,8.5,3.2,11.7,0l11.5-11.5
					c1.7-1.7,2.6-4,2.6-6.4v-12.7c0-2.4,1-4.7,2.6-6.4l60.9-60.9c1.7-1.7,4-2.6,6.4-2.6h12.7C310,225,312.3,224,314,222.3z"/>
			</g>
		</g>
		<g>
			<g>
				<g>
					<path class="st1" d="M209.8,241c-7.9,0-15.8-3-21.8-9c-12-12-12-31.5,0-43.5c5.8-5.8,13.5-9,21.8-9c8.2,0,15.9,3.2,21.8,9v0
						c0,0,0,0,0,0c12,12,12,31.5,0,43.5C225.5,238,217.6,241,209.8,241z M209.8,189.4c-5.6,0-10.8,2.2-14.7,6.1
						c-8.1,8.1-8.1,21.3,0,29.4c8.1,8.1,21.3,8.1,29.4,0c8.1-8.1,8.1-21.3,0-29.4v0C220.5,191.6,215.3,189.4,209.8,189.4z"/>
				</g>
			</g>
			<g>
				<g>
					<path class="st1" d="M306.5,311.9c-1.3,0-2.6-0.5-3.5-1.5L224.5,232c-2-2-2-5.1,0-7.1c2-2,5.1-2,7.1,0l78.5,78.5
						c2,2,2,5.1,0,7.1C309.1,311.5,307.8,311.9,306.5,311.9z"/>
				</g>
			</g>
			<g>
				<g>
					<path class="st1" d="M272.7,278.1c-1.3,0-2.6-0.5-3.5-1.5c-2-2-2-5.1,0-7.1l15.8-15.9c2-2,5.1-2,7.1,0c2,2,2,5.1,0,7.1
						l-15.8,15.9C275.2,277.6,273.9,278.1,272.7,278.1z"/>
				</g>
			</g>
			<g>
				<g>
					<path class="st1" d="M292.1,297.5c-1.3,0-2.6-0.5-3.5-1.5c-2-2-2-5.1,0-7.1l12.1-12.1c1.9-2,5.1-2,7.1,0c2,2,2,5.1,0,7.1
						l-12.1,12.1C294.7,297,293.4,297.5,292.1,297.5z"/>
				</g>
			</g>
		</g>
	</g>
</g>
</svg>
