<?xml version="1.0" encoding="utf-8"?>
<!-- Generator: Adobe Illustrator 19.2.0, SVG Export Plug-In . SVG Version: 6.00 Build 0)  -->
<svg version="1.1" id="Layer_1" xmlns="http://www.w3.org/2000/svg" xmlns:xlink="http://www.w3.org/1999/xlink" x="0px" y="0px"
	 viewBox="0 0 500 500" style="enable-background:new 0 0 500 500;" xml:space="preserve">
<style type="text/css">
	.st0{fill:#ECF4F7;}
	.st1{fill:#1C1D21;}
	.st2{fill:#83E1E5;}
	.st3{fill:#AAB1BA;}
	.st4{fill:none;stroke:#1C1D21;stroke-width:10;stroke-linecap:round;stroke-linejoin:round;stroke-miterlimit:10;}
	.st5{fill:#FDDF7F;}
	.st6{fill:#FFFFFF;}
</style>
<g>
	<g>
		<g>
			<circle class="st5" cx="99.5" cy="273" r="13.1"/>
		</g>
	</g>
	<g>
		<g>
			<circle class="st5" cx="400.5" cy="273" r="13.1"/>
		</g>
	</g>
	<g>
		<g>
			<path class="st5" d="M222.9,90.9c-10.7,0-19.3,8.6-19.3,19.3l0,40.4l0,23l22.7-18.6c3.5-2.8,7.8-4.4,12.2-4.4h38.6
				c10.7,0,19.3-8.6,19.3-19.3v-21.1c0-10.7-8.6-19.3-19.3-19.3H222.9z"/>
		</g>
	</g>
	<g>
		<g>
			<g>
				<path class="st2" d="M378.6,467v-33.6c0-22.7-14.3-42.9-35.7-50.5l-43.6-15.5c-11.6-4.1-14-19.6-4.2-26.8
					c18.9-13.9,31.1-36.2,31.1-61.5v0c0-42.1-34.2-76.3-76.3-76.3h0c-42.1,0-76.3,34.2-76.3,76.3v0c0,25.2,12.2,47.6,31.1,61.5
					c9.9,7.3,7.4,22.7-4.2,26.8l-43.6,15.5c-21.4,7.6-35.7,27.8-35.7,50.5V467c0,15.5,12.6,28,28,28h201.1
					C366,495,378.6,482.5,378.6,467z"/>
			</g>
		</g>
		<g>
			<g>
				<path class="st1" d="M350.6,500H149.4c-18.2,0-33-14.8-33-33v-33.6c0-24.8,15.7-47,39-55.2l43.6-15.5c3.7-1.3,6.3-4.5,6.9-8.4
					c0.6-3.8-0.9-7.4-4-9.7c-20.8-15.3-33.1-39.8-33.1-65.5c0-21.9,8.6-42.5,24.2-57.9c2-1.9,5.1-1.9,7.1,0.1c1.9,2,1.9,5.1-0.1,7.1
					c-13.7,13.5-21.3,31.5-21.3,50.8c0,22.6,10.9,44,29.1,57.4c6.1,4.5,9.1,11.7,8,19.2c-1.1,7.5-6.3,13.8-13.4,16.4l-43.6,15.5
					c-19.3,6.9-32.3,25.3-32.3,45.8V467c0,12.7,10.3,23,23,23h201.1c12.7,0,23-10.3,23-23v-33.6c0-20.5-13-38.9-32.3-45.8
					l-43.6-15.5c-7.2-2.5-12.3-8.8-13.4-16.4c-1.1-7.5,1.9-14.7,8-19.2c18.2-13.4,29.1-34.9,29.1-57.4c0-39.3-32-71.3-71.3-71.3
					c-3.9,0-7.9,0.3-11.8,1c-2.7,0.4-5.3-1.4-5.8-4.1c-0.5-2.7,1.4-5.3,4.1-5.8c4.4-0.7,8.9-1.1,13.4-1.1
					c44.8,0,81.3,36.5,81.3,81.3c0,25.7-12.4,50.2-33.1,65.5c-3.1,2.3-4.6,5.9-4,9.7c0.6,3.9,3.1,7.1,6.9,8.4l43.6,15.5
					c23.3,8.3,39,30.5,39,55.2V467C383.6,485.2,368.8,500,350.6,500z"/>
			</g>
		</g>
		<g>
			<g>
				<path class="st1" d="M214.8,216.3c-1.8,0-3.5-1-4.4-2.7c-1.3-2.4-0.3-5.5,2.1-6.7c1.5-0.8,3-1.5,4.6-2.2c2.5-1.1,5.5,0,6.6,2.5
					c1.1,2.5,0,5.5-2.5,6.6c-1.3,0.6-2.7,1.2-4,1.9C216.3,216.2,215.5,216.3,214.8,216.3z"/>
			</g>
		</g>
	</g>
	<g>
		<g>
			<g>
				<path class="st1" d="M288.7,57.5c-1.3,0-2.6-0.5-3.5-1.5c-19.4-19.4-50.9-19.4-70.3,0c-2,2-5.1,2-7.1,0c-2-2-2-5.1,0-7.1
					c11.3-11.3,26.3-17.5,42.2-17.5s30.9,6.2,42.2,17.5c2,2,2,5.1,0,7.1C291.2,57,289.9,57.5,288.7,57.5z"/>
			</g>
		</g>
		<g>
			<g>
				<path class="st1" d="M311,35.2c-1.3,0-2.6-0.5-3.5-1.5c-31.7-31.7-83.2-31.7-114.9,0c-2,2-5.1,2-7.1,0c-2-2-2-5.1,0-7.1
					c35.6-35.6,93.4-35.6,129,0c2,2,2,5.1,0,7.1C313.5,34.7,312.2,35.2,311,35.2z"/>
			</g>
		</g>
	</g>
	<g>
		<g>
			<path class="st1" d="M203.6,178.6c-0.7,0-1.5-0.2-2.1-0.5c-1.7-0.8-2.9-2.6-2.9-4.5v-63.4c0-13.4,10.9-24.3,24.3-24.3h54.2
				c13.4,0,24.3,10.9,24.3,24.3v21.1c0,13.4-10.9,24.3-24.3,24.3h-38.6c-3.3,0-6.5,1.2-9.1,3.2l-22.7,18.6
				C205.9,178.2,204.7,178.6,203.6,178.6z M222.9,95.9c-7.9,0-14.3,6.4-14.3,14.3V163l14.5-11.9c4.3-3.6,9.8-5.5,15.4-5.5h38.6
				c7.9,0,14.3-6.4,14.3-14.3v-21.1c0-7.9-6.4-14.3-14.3-14.3H222.9z"/>
		</g>
	</g>
	<g>
		<g>
			<g>
				<path class="st1" d="M227.8,129.1h-1.8c-2.8,0-5-2.2-5-5s2.2-5,5-5h1.8c2.8,0,5,2.2,5,5S230.5,129.1,227.8,129.1z"/>
			</g>
		</g>
		<g>
			<g>
				<path class="st1" d="M250.9,129.1h-1.8c-2.8,0-5-2.2-5-5s2.2-5,5-5h1.8c2.8,0,5,2.2,5,5S253.7,129.1,250.9,129.1z"/>
			</g>
		</g>
		<g>
			<g>
				<path class="st1" d="M274.1,129.1h-1.8c-2.8,0-5-2.2-5-5s2.2-5,5-5h1.8c2.8,0,5,2.2,5,5S276.8,129.1,274.1,129.1z"/>
			</g>
		</g>
	</g>
	<g>
		<g>
			<g>
				<path class="st1" d="M64,252.4c-1.3,0-2.6-0.5-3.5-1.5c-2-2-2-5.1,0-7.1c21.5-21.5,56.5-21.5,78,0c2,2,2,5.1,0,7.1
					c-2,2-5.1,2-7.1,0c-17.6-17.6-46.2-17.6-63.8,0C66.6,251.9,65.3,252.4,64,252.4z"/>
			</g>
		</g>
		<g>
			<g>
				<path class="st1" d="M155.4,231.9c-1.3,0-2.6-0.5-3.5-1.5c-14-14-32.6-21.7-52.4-21.7c-19.8,0-38.4,7.7-52.4,21.7
					c-2,2-5.1,2-7.1,0c-2-2-2-5.1,0-7.1c15.9-15.9,37-24.6,59.4-24.6c22.5,0,43.6,8.7,59.4,24.6c2,2,2,5.1,0,7.1
					C157.9,231.4,156.7,231.9,155.4,231.9z"/>
			</g>
		</g>
	</g>
	<g>
		<g>
			<path class="st1" d="M99.5,291.1c-10,0-18.1-8.1-18.1-18.1c0-10,8.1-18.1,18.1-18.1s18.1,8.1,18.1,18.1
				C117.5,283,109.4,291.1,99.5,291.1z M99.5,264.9c-4.4,0-8.1,3.6-8.1,8.1c0,4.4,3.6,8.1,8.1,8.1c4.4,0,8.1-3.6,8.1-8.1
				C107.5,268.6,103.9,264.9,99.5,264.9z"/>
		</g>
	</g>
	<g>
		<g>
			<g>
				<path class="st1" d="M436,252.4c-1.3,0-2.6-0.5-3.5-1.5c-17.6-17.6-46.2-17.6-63.8,0c-2,2-5.1,2-7.1,0c-2-2-2-5.1,0-7.1
					c21.5-21.5,56.5-21.5,78,0c2,2,2,5.1,0,7.1C438.5,251.9,437.3,252.4,436,252.4z"/>
			</g>
		</g>
		<g>
			<g>
				<path class="st1" d="M456.4,231.9c-1.3,0-2.6-0.5-3.5-1.5c-14-14-32.6-21.7-52.4-21.7c-19.8,0-38.4,7.7-52.4,21.7
					c-2,2-5.1,2-7.1,0c-2-2-2-5.1,0-7.1c15.9-15.9,37-24.6,59.4-24.6c22.5,0,43.6,8.7,59.4,24.6c2,2,2,5.1,0,7.1
					C459,231.4,457.7,231.9,456.4,231.9z"/>
			</g>
		</g>
	</g>
	<g>
		<g>
			<path class="st1" d="M400.5,291.1c-10,0-18.1-8.1-18.1-18.1c0-10,8.1-18.1,18.1-18.1c10,0,18.1,8.1,18.1,18.1
				C418.6,283,410.5,291.1,400.5,291.1z M400.5,264.9c-4.4,0-8.1,3.6-8.1,8.1c0,4.4,3.6,8.1,8.1,8.1c4.4,0,8.1-3.6,8.1-8.1
				C408.6,268.6,405,264.9,400.5,264.9z"/>
		</g>
	</g>
</g>
</svg>
