<?xml version="1.0" encoding="utf-8"?>
<!-- Generator: Adobe Illustrator 19.2.0, SVG Export Plug-In . SVG Version: 6.00 Build 0)  -->
<svg version="1.1" id="Layer_1" xmlns="http://www.w3.org/2000/svg" xmlns:xlink="http://www.w3.org/1999/xlink" x="0px" y="0px"
	 viewBox="0 0 500 500" style="enable-background:new 0 0 500 500;" xml:space="preserve">
<style type="text/css">
	.st0{fill:#ECF4F7;}
	.st1{fill:#1C1D21;}
	.st2{fill:#83E1E5;}
	.st3{fill:#AAB1BA;}
	.st4{fill:none;stroke:#1C1D21;stroke-width:10;stroke-linecap:round;stroke-linejoin:round;stroke-miterlimit:10;}
	.st5{fill:#FDDF7F;}
	.st6{fill:#FFFFFF;}
</style>
<g>
	<g>
		<g>
			<path class="st2" d="M35.2,319.2V88.9c0-11,9-20,20-20h322.1c11,0,20,9,20,20v230.3c0,11-9,20-20,20H55.2
				C44.1,339.2,35.2,330.3,35.2,319.2z"/>
		</g>
	</g>
	<g>
		<g>
			<g>
				<path class="st1" d="M320.4,466.2H112.1c-2.8,0-5-2.2-5-5v-8.6c0-19.4,15.8-35.2,35.2-35.2h21.5c7.8,0,14.1-6.3,14.1-14.1v-11.6
					c0-9.5-7.8-17.3-17.3-17.3H30.9c-17,0-30.9-13.8-30.9-30.9V64.6c0-17,13.8-30.9,30.9-30.9h370.8c17,0,30.9,13.8,30.9,30.9v278.9
					c0,17-13.8,30.9-30.9,30.9H272c-9.5,0-17.3,7.8-17.3,17.3v11.6c0,7.8,6.3,14.1,14.1,14.1h21.5c19.4,0,35.2,15.8,35.2,35.2v8.6
					C325.4,464,323.1,466.2,320.4,466.2z M117.1,456.2h198.3v-3.6c0-13.9-11.3-25.2-25.2-25.2h-21.5c-13.3,0-24.1-10.8-24.1-24.1
					v-11.6c0-15.1,12.3-27.3,27.3-27.3h129.7c11.5,0,20.9-9.4,20.9-20.9V64.6c0-11.5-9.4-20.9-20.9-20.9H30.9
					C19.4,43.8,10,53.1,10,64.6v278.9c0,11.5,9.4,20.9,20.9,20.9h129.7c15.1,0,27.3,12.3,27.3,27.3v11.6c0,13.3-10.8,24.1-24.1,24.1
					h-21.5c-13.9,0-25.2,11.3-25.2,25.2V456.2z"/>
			</g>
		</g>
		<g>
			<g>
				<path class="st1" d="M194.3,374.4H155c-2.8,0-5-2.2-5-5c0-2.8,2.2-5,5-5h39.3c2.8,0,5,2.2,5,5
					C199.3,372.2,197.1,374.4,194.3,374.4z"/>
			</g>
		</g>
		<g>
			<g>
				<path class="st1" d="M224.4,374.4h-8.2c-2.8,0-5-2.2-5-5c0-2.8,2.2-5,5-5h8.2c2.8,0,5,2.2,5,5
					C229.4,372.2,227.2,374.4,224.4,374.4z"/>
			</g>
		</g>
		<g>
			<g>
				<path class="st1" d="M274.6,427.4h-47.7c-2.8,0-5-2.2-5-5s2.2-5,5-5h47.7c2.8,0,5,2.2,5,5S277.4,427.4,274.6,427.4z"/>
			</g>
		</g>
	</g>
	<g>
		<g>
			<g>
				<path class="st1" d="M35.2,91.2c-2.8,0-5-2.2-5-5c0-12.3,10-22.2,22.2-22.2h14.9c2.8,0,5,2.2,5,5c0,2.8-2.2,5-5,5H52.4
					c-6.8,0-12.2,5.5-12.2,12.2C40.2,88.9,37.9,91.2,35.2,91.2z"/>
			</g>
		</g>
		<g>
			<g>
				<path class="st1" d="M35.2,178c-2.8,0-5-2.2-5-5v-63.8c0-2.8,2.2-5,5-5c2.8,0,5,2.2,5,5V173C40.2,175.7,37.9,178,35.2,178z"/>
			</g>
		</g>
		<g>
			<g>
				<path class="st1" d="M92.9,73.9h-6.5c-2.8,0-5-2.2-5-5c0-2.8,2.2-5,5-5h6.5c2.8,0,5,2.2,5,5C97.9,71.7,95.7,73.9,92.9,73.9z"/>
			</g>
		</g>
	</g>
	<g>
		<g>
			<g>
				<path class="st1" d="M380.1,344.2h-14.9c-2.8,0-5-2.2-5-5c0-2.8,2.2-5,5-5h14.9c6.8,0,12.2-5.5,12.2-12.2c0-2.8,2.2-5,5-5
					c2.8,0,5,2.2,5,5C402.3,334.3,392.3,344.2,380.1,344.2z"/>
			</g>
		</g>
		<g>
			<g>
				<path class="st1" d="M397.3,304c-2.8,0-5-2.2-5-5v-63.8c0-2.8,2.2-5,5-5c2.8,0,5,2.2,5,5V299C402.3,301.8,400.1,304,397.3,304z"
					/>
			</g>
		</g>
		<g>
			<g>
				<path class="st1" d="M346,344.2h-6.5c-2.8,0-5-2.2-5-5c0-2.8,2.2-5,5-5h6.5c2.8,0,5,2.2,5,5C351,342,348.8,344.2,346,344.2z"/>
			</g>
		</g>
	</g>
	<g>
		<g>
			<g>
				<polygon class="st0" points="317.5,149.4 495,69.6 322.2,263.5 				"/>
			</g>
		</g>
		<g>
			<g>
				<path class="st1" d="M322.2,268.5c-0.6,0-1.1-0.1-1.7-0.3c-1.9-0.7-3.2-2.5-3.3-4.5l-4.7-114.2c-0.1-2,1.1-3.9,2.9-4.8L493,65
					c2.2-1,4.7-0.3,6.1,1.6c1.4,1.9,1.3,4.5-0.3,6.3L326,266.9C325,268,323.6,268.5,322.2,268.5z M322.7,152.6l4,98.4l149-167.2
					L322.7,152.6z"/>
			</g>
		</g>
		<g>
			<g>
				<polygon class="st0" points="317.5,149.4 495,69.6 235.3,70.1 				"/>
			</g>
		</g>
		<g>
			<g>
				<path class="st1" d="M317.5,154.4c-1.3,0-2.5-0.5-3.5-1.4l-82.3-79.3c-1.5-1.4-1.9-3.6-1.2-5.5c0.8-1.9,2.6-3.1,4.6-3.1
					L495,64.6c0,0,0,0,0,0c2.4,0,4.4,1.6,4.9,3.9c0.5,2.3-0.7,4.6-2.8,5.6l-177.5,79.8C318.9,154.2,318.2,154.4,317.5,154.4z
					 M247.6,75.1l70.9,68.4l153-68.8L247.6,75.1z"/>
			</g>
		</g>
		<g>
			<g>
				<g>
					<g>
						<polygon class="st0" points="254.1,177.9 286.7,119.7 317.5,149.4 						"/>
					</g>
				</g>
				<g>
					<g>
						<path class="st1" d="M254.1,182.9c-1.4,0-2.7-0.6-3.7-1.6c-1.5-1.6-1.7-3.9-0.7-5.8l32.6-58.2c0.8-1.4,2.1-2.3,3.6-2.5
							c1.5-0.2,3.1,0.3,4.2,1.3l30.8,29.7c1.2,1.2,1.7,2.8,1.5,4.5c-0.3,1.6-1.4,3-2.9,3.7l-63.4,28.5
							C255.5,182.8,254.8,182.9,254.1,182.9z M287.9,127.8l-22.1,39.3l42.9-19.3L287.9,127.8z"/>
					</g>
				</g>
			</g>
			<g>
				<g>
					<g>
						<polygon class="st0" points="254.1,177.9 319.3,192.1 317.5,149.4 						"/>
					</g>
				</g>
				<g>
					<g>
						<path class="st1" d="M319.3,197.1c-0.4,0-0.7,0-1.1-0.1L253,182.8c-2.1-0.5-3.7-2.2-3.9-4.4c-0.2-2.1,1-4.2,2.9-5.1l63.4-28.5
							c1.5-0.7,3.3-0.6,4.7,0.3c1.4,0.9,2.3,2.4,2.4,4l1.8,42.7c0.1,1.5-0.6,3-1.8,4C321.6,196.7,320.5,197.1,319.3,197.1z
							 M270,176.2l44.1,9.6l-1.2-28.9L270,176.2z"/>
					</g>
				</g>
			</g>
		</g>
	</g>
	<g>
		<g>
			<path class="st1" d="M117.7,246.7c-1.9,0-3.7-1.1-4.5-2.9c-1.2-2.5-0.1-5.5,2.4-6.6l10.5-4.9c2.5-1.2,5.5-0.1,6.6,2.4
				c1.2,2.5,0.1,5.5-2.4,6.6l-10.5,4.9C119.1,246.5,118.4,246.7,117.7,246.7z"/>
		</g>
	</g>
	<g>
		<g>
			<path class="st1" d="M153.7,229.9c-1.9,0-3.7-1.1-4.5-2.9c-1.2-2.5-0.1-5.5,2.4-6.6l51.6-24.1c2.5-1.2,5.5-0.1,6.6,2.4
				c1.2,2.5,0.1,5.5-2.4,6.6l-51.6,24.1C155.1,229.7,154.4,229.9,153.7,229.9z"/>
		</g>
	</g>
	<g>
		<g>
			<path class="st1" d="M224.4,196.9c-1.9,0-3.7-1.1-4.5-2.9c-1.2-2.5-0.1-5.5,2.4-6.6l40.6-18.9c2.5-1.2,5.5-0.1,6.6,2.4
				c1.2,2.5,0.1,5.5-2.4,6.6l-40.6,18.9C225.9,196.8,225.1,196.9,224.4,196.9z"/>
		</g>
	</g>
</g>
</svg>
